<svg xmlns="http://www.w3.org/2000/svg" width="24" height="24" viewBox="0 0 24 24" fill="none" stroke="currentColor" stroke-width="2" stroke-linecap="round" stroke-linejoin="round"><path d="M13 10V3a1 1 0 0 0-2 0v7M11.5 12.5a5.5 5.5 0 1 0 0-11 5.5 5.5 0 0 0 0 11zm-7 8a1 1 0 0 1-1-1v-4a1 1 0 0 1 1-1h1a1 1 0 0 1 1 1v4a1 1 0 0 1-1 1zM21 16.5a1 1 0 0 0-1-1h-1a1 1 0 0 0-1 1v4a1 1 0 0 0 1 1h1a1 1 0 0 0 1-1zM6.5 18a1 1 0 0 1-1-1v-2a1 1 0 0 1 1-1M17.5 15a1 1 0 0 1 1 1v2a1 1 0 0 1-1 1M14 11.5a.5.5 0 1 0-1 0 .5.5 0 0 0 1 0z"/></svg>
